<svg width="24" height="24" viewBox="0 0 24 24" fill="none" xmlns="http://www.w3.org/2000/svg">
<path d="M3.73544 8.84976C4.22268 8.84976 4.48009 8.57383 4.48009 8.09555V5.92488C4.48009 4.96832 4.9857 4.48084 5.90501 4.48084H8.12972C8.61696 4.48084 8.88355 4.2141 8.88355 3.73582C8.88355 3.25754 8.61696 3 8.12972 3H5.88662C3.96527 3 3 3.94737 3 5.8421V8.09555C3 8.57383 3.2666 8.84976 3.73544 8.84976ZM20.2554 8.84976C20.7426 8.84976 21 8.57383 21 8.09555V5.8421C21 3.94737 20.0347 3 18.1134 3H15.8611C15.383 3 15.1164 3.25754 15.1164 3.73582C15.1164 4.2141 15.383 4.48084 15.8611 4.48084H18.0858C18.9959 4.48084 19.5199 4.96832 19.5199 5.92488V8.09555C19.5199 8.57383 19.7865 8.84976 20.2554 8.84976ZM5.88662 21H8.12972C8.61696 21 8.88355 20.7333 8.88355 20.2641C8.88355 19.7859 8.61696 19.5191 8.12972 19.5191H5.90501C4.9857 19.5191 4.48009 19.0316 4.48009 18.0751V15.9044C4.48009 15.4169 4.21348 15.1502 3.73544 15.1502C3.25741 15.1502 3 15.4169 3 15.9044V18.1487C3 20.0526 3.96527 21 5.88662 21ZM15.8611 21H18.1134C20.0347 21 21 20.0434 21 18.1487V15.9044C21 15.4169 20.7334 15.1502 20.2554 15.1502C19.7774 15.1502 19.5199 15.4169 19.5199 15.9044V18.0751C19.5199 19.0316 18.9959 19.5191 18.0858 19.5191H15.8611C15.383 19.5191 15.1164 19.7859 15.1164 20.2641C15.1164 20.7333 15.383 21 15.8611 21Z" fill="black"/>
<path d="M8.49744 11.3791C8.92952 11.3791 9.24208 11.0756 9.24208 10.6341V9.38323C9.24208 8.94173 8.92952 8.63821 8.49744 8.63821C8.06537 8.63821 7.762 8.94173 7.762 9.38323V10.6341C7.762 11.0756 8.06537 11.3791 8.49744 11.3791ZM11.2646 13.5498C11.2829 13.5498 11.3105 13.5498 11.3381 13.5498C12.2666 13.5498 12.7723 13.0439 12.7723 12.115V9.21766C12.7723 8.85895 12.5332 8.62901 12.1839 8.62901C11.8161 8.62901 11.5771 8.85895 11.5771 9.21766V12.1977C11.5771 12.2897 11.522 12.3357 11.4392 12.3357H11.1175C10.7865 12.3357 10.5291 12.5933 10.5291 12.9243C10.5291 13.3199 10.7957 13.5498 11.2646 13.5498ZM15.475 11.3791C15.8979 11.3791 16.2012 11.0756 16.2012 10.6341V9.38323C16.2012 8.94173 15.8979 8.63821 15.475 8.63821C15.0337 8.63821 14.7303 8.94173 14.7303 9.38323V10.6341C14.7303 11.0756 15.0337 11.3791 15.475 11.3791ZM11.9448 16.6403C13.0572 16.6403 14.1788 16.1619 14.9785 15.3617C15.0889 15.2606 15.144 15.1042 15.144 14.9203C15.144 14.5708 14.8867 14.3224 14.5464 14.3224C14.3718 14.3224 14.2431 14.3868 14.0684 14.5708C13.5628 15.095 12.763 15.4537 11.9448 15.4537C11.1726 15.4537 10.3636 15.1135 9.83044 14.5708C9.68335 14.4328 9.56384 14.3224 9.3432 14.3224C9.00306 14.3224 8.74566 14.5708 8.74566 14.9203C8.74566 15.0766 8.80082 15.2237 8.92032 15.3526C9.66496 16.1987 10.8325 16.6403 11.9448 16.6403Z" fill="black"/>
</svg>
