<svg width="48" height="48" viewBox="0 0 48 48" fill="none" xmlns="http://www.w3.org/2000/svg">
<mask id="mask0_55074_2385" style="mask-type:luminance" maskUnits="userSpaceOnUse" x="0" y="0" width="48" height="48">
<path d="M0 0H48V48H0V0Z" fill="white"/>
</mask>
<g mask="url(#mask0_55074_2385)">
<path fill-rule="evenodd" clip-rule="evenodd" d="M10.6273 6.12891C6.99628 6.12891 3.42958 6.75368 0.0264792 7.98567L-0.0107422 7.99914V9.27334C0.195039 9.19336 0.547756 9.07543 1.06248 8.95608C1.32214 8.89879 1.5795 8.84666 1.83367 8.80374C1.91857 8.78938 2.01322 8.77661 2.10397 8.76313C5.43723 8.28626 8.30594 8.96441 10.0296 10.9435C13.8011 15.2724 10.6759 24.1647 3.04939 30.8043C2.07756 31.6502 1.08002 32.4163 0.070436 33.1044C0.043672 33.1223 0.0165535 33.1395 -0.0107422 33.1573V35.2772C0.295714 35.0658 0.601462 34.8505 0.905082 34.6256C1.31984 35.3276 4.08131 39.7393 4.13023 39.8136C4.33566 39.6811 4.93102 39.3014 5.65259 38.8111C6.48351 38.24 7.46669 37.5275 8.37968 36.7702C8.42062 36.7346 8.46121 36.6988 8.5002 36.6637L4.28248 31.8249C4.71018 31.405 6.1377 29.985 7.27136 28.6345C7.5367 28.8401 11.0515 31.5649 12.4563 32.8258C13.5703 31.6126 14.5808 30.3572 15.4753 29.0782C13.5379 27.8065 9.51493 25.5098 9.51493 25.5098C10.1854 24.4488 10.7588 23.3858 11.2278 22.3359C11.2278 22.3359 15.92 24.1712 17.8334 25.1136C18.3366 24.0921 18.762 23.0669 19.1021 22.0461C19.1521 21.8952 19.2001 21.7454 19.2464 21.5964C16.8701 20.6331 12.6277 19.6215 12.2433 19.5309C12.4941 18.6142 12.6575 17.7203 12.7266 16.8618C16.1605 17.2026 19.3075 17.9891 19.9589 18.1585C20.0555 17.1647 20.0433 16.2228 19.9208 15.3435C16.0879 14.6532 13.0784 14.6475 12.6857 14.6503C12.5986 13.9695 12.44 13.3222 12.2057 12.7169C12.208 12.7169 15.6065 12.4194 19.1597 12.8351C18.9757 12.4669 18.7388 12.0477 18.5067 11.71C18.3231 11.442 17.9144 10.9437 17.9144 10.9437C17.9144 10.9437 14.9106 10.7174 11.4293 11.2392C11.097 10.7619 10.7271 10.3647 10.3551 10.0347C10.4261 10.018 13.0554 9.40794 16.2313 9.41982C15.3562 8.81899 14.448 8.41572 14.448 8.41572C11.9902 8.46378 9.41266 9.1476 9.20759 9.20276C8.5057 8.79079 7.9589 8.62463 7.89048 8.60476C7.88853 8.60388 7.88658 8.60317 7.88445 8.60228C7.88658 8.60157 7.88747 8.60033 7.88942 8.59962C8.08722 8.53915 9.98551 7.96492 11.3769 7.81382C11.3769 7.81382 11.3741 7.81329 11.3714 7.81329C9.47824 7.56519 6.87345 8.15928 6.57284 8.23004C6.16553 8.149 5.60118 8.07505 5.18661 8.03603C5.18661 8.03603 6.58968 7.62974 8.44526 7.36958C10.1349 7.13301 15.8 6.43659 19.4197 11.3108C22.8471 15.9265 21.6011 23.0896 16.9491 29.9593C15.7219 31.804 14.2513 33.6244 12.5577 35.3621C11.1325 36.8435 9.68898 38.1264 8.3125 39.22C6.16482 40.9374 3.85727 42.4239 1.47936 43.5954C0.983424 43.8591 0.486252 44.1068 -0.0107422 44.3462V46.5795C3.96557 44.6968 6.32098 42.9041 6.32098 42.9041L9.6686 47.6588C9.6686 47.6588 12.2628 46.0344 14.8652 43.8907C14.8649 43.8903 14.8649 43.8899 14.8645 43.8894L10.8526 39.3465C10.8522 39.3461 10.8519 39.3458 10.8519 39.3458C12.3827 37.9868 13.7817 36.5674 15.0377 35.1103C15.0377 35.1103 19.1994 38.8065 19.6549 39.2424C20.9752 37.7531 22.1883 36.1863 23.264 34.5552C21.0984 32.8345 18.2753 30.8955 18.2327 30.866L18.2311 30.8648C18.2311 30.8648 19.9272 28.1513 20.6167 26.4946C20.6167 26.4946 23.362 27.9938 25.9556 29.68C26.59 28.2602 27.118 26.7859 27.4939 25.2808C25.791 24.2528 22.0015 22.5597 22.0015 22.5597C22.3265 21.2852 22.5197 20.0378 22.5752 18.834C22.5752 18.834 25.3303 19.7084 28.1061 21.1011C28.149 19.9331 28.0749 18.779 27.8716 17.6625C25.5216 16.5335 22.3941 15.7676 22.3941 15.7676C22.2283 14.8245 21.958 13.9177 21.5805 13.0711C21.5805 13.0711 24.4251 13.6031 26.937 14.6235C26.3073 13.2325 25.537 12.4396 25.537 12.4396C23.9278 11.5568 20.2629 10.8879 20.2629 10.8879C19.8664 10.3844 19.4135 9.90254 18.9371 9.48384C20.0897 9.64292 21.8864 10.0512 21.8864 10.0512C19.9112 9.08447 17.6845 8.52585 17.6581 8.51946C17.6553 8.51751 17.2166 8.22916 16.6894 7.94807C16.6894 7.94807 22.2128 9.08021 25.2144 11.3441C25.4866 11.5497 25.7458 11.7783 26.0113 12.0319C26.314 12.3215 26.5779 12.6467 26.8114 12.9661C32.7898 21.1511 27.6185 36.9258 13.0458 47.9576H18.467C18.1694 47.6276 17.4422 46.8209 17.3612 46.7299C19.0675 45.1563 20.6744 43.4468 22.1397 41.6322L25.747 45.226L25.7475 45.2246C27.1605 43.6158 28.4707 41.8952 29.6285 40.0878C29.6285 40.0878 27.7334 38.2684 25.7169 36.5131C27.3365 33.8948 28.3364 31.2861 28.3364 31.2861C28.4909 31.4005 30.4546 32.8602 32.469 34.7363C33.4416 32.6041 34.044 29.893 34.044 29.893C31.9451 27.9798 29.791 26.6148 29.791 26.6148C30.1136 25.1682 30.3167 23.6803 30.3586 22.2109C30.3586 22.2109 32.6399 23.5661 34.6109 25.3011C34.6291 24.0159 34.5174 22.7323 34.2468 21.4792C32.2911 19.7847 30.1186 18.6506 30.1186 18.6506C30.118 18.6483 29.9091 17.2278 29.2134 15.5125C29.2184 15.5154 29.2239 15.5179 29.229 15.5202C29.3633 15.587 30.4 16.1152 32.231 17.4202C30.8036 15.5663 28.3451 13.7418 28.3451 13.7418C28.1102 13.3419 27.839 12.9477 27.5423 12.5648C29.5617 13.945 31.4043 15.5668 33.0314 17.3863C33.6348 18.1436 34.1895 19.1074 34.6172 20.213C34.7346 20.5152 34.8354 20.8159 34.9248 21.114C36.263 25.6339 35.4404 30.7153 33.9292 34.8759C32.1876 39.6714 29.2884 44.1501 25.8858 47.9576H32.3033C32.9242 47.0753 33.4834 46.2344 34.0571 45.2686C33.6286 44.6169 31.6759 42.3308 31.6759 42.3308C32.7505 40.5719 33.7182 38.6699 34.4827 36.7793C34.4827 36.7793 35.789 38.2248 36.8117 39.7129C37.8167 37.3063 38.2859 34.7945 38.2859 34.7945C37.5962 33.6428 36.0554 31.8575 36.0554 31.8575C36.3835 30.3404 36.5875 28.77 36.615 27.2004C37.3863 28.1215 38.4266 29.5789 38.4266 29.5789C38.4266 29.5789 38.4261 29.5753 38.4257 29.57C38.2291 26.715 36.7569 24.1182 36.4305 23.5738C36.4214 23.5197 36.4111 23.4615 36.3984 23.3957C36.2062 22.4058 35.8592 21.2979 35.6782 20.7516C37.3348 23.1973 38.3988 25.9455 38.3988 25.9455C39.0806 27.7138 39.4888 29.947 39.4888 32.3777C39.4888 33.6645 39.2311 40.3802 34.1043 47.9576H35.7263C36.6774 46.1759 37.732 43.9607 38.4377 42.0791C38.4381 42.0798 38.4385 42.0811 38.4388 42.0821C38.4615 42.1423 38.8133 43.0728 39.0753 44.0394C39.6196 42.1149 40.0085 40.114 40.2238 38.0544L40.2242 38.0531C40.1567 37.786 40.0119 37.3533 39.9301 37.0896C39.9301 37.0896 40.2779 35.341 40.4158 33.3458C40.6033 34.7152 40.7008 36.1066 40.7008 37.5133C40.7008 39.9501 40.4131 42.3419 39.8564 44.6514C39.57 45.7896 39.221 46.909 38.842 47.9576H40.2265C41.3777 44.6332 41.9727 41.1305 41.9727 37.6096C41.9727 20.2511 27.911 6.12891 10.6273 6.12891ZM-0.0107422 26.8675V31.0533C0.72961 30.5732 1.47156 30.038 2.19968 29.4512L-0.0107422 26.8675ZM0.997604 9.53456C0.652508 9.76599 0.317515 10.0123 -0.0107422 10.2714V11.245C0.855808 10.5564 1.9666 9.81086 2.9294 9.2611C2.30727 9.30154 1.66192 9.39233 0.997604 9.53456ZM3.82395 26.0228C2.69366 25.2315 -0.00772902 23.3434 -0.0107422 23.3413V21.0498C1.93807 18.2745 2.21988 15.0892 0.509117 13.5343C0.348179 13.388 0.174124 13.2632 -0.0107422 13.1548V12.0133L0.0192122 12.0308C0.0192122 12.0308 2.46236 10.096 4.40336 9.26217C4.87129 9.29604 5.31954 9.36165 5.74635 9.45955C2.84591 10.6906 0.704441 12.2176 0.556087 12.3247C0.853858 12.5011 1.1254 12.7223 1.16102 12.7514C1.19842 12.7278 4.01041 10.9682 7.10529 9.91354C7.525 10.1056 7.93089 10.3447 8.28184 10.6151C4.91206 11.5626 1.67255 13.2546 1.67255 13.2546C1.85511 13.4671 2.01605 13.6969 2.15519 13.9427C2.17699 13.934 2.1972 13.9261 2.21262 13.9195C5.6618 12.4426 9.32652 11.6855 9.32652 11.6855C9.61312 12.0785 9.84921 12.5171 10.0296 13.0005C10.0296 13.0005 6.74069 13.3768 2.50968 14.7344C2.6965 15.3194 2.74772 15.7592 2.74807 15.7631C2.74807 15.7631 6.73679 14.8704 10.4152 14.7714C10.4666 15.3627 10.4481 16.0263 10.3636 16.7073C8.18488 16.5924 2.99569 16.8687 2.79185 16.8846C2.79185 16.8846 2.77307 17.6325 2.57881 18.3365C2.57881 18.3365 6.37043 18.4582 9.81944 19.1016C9.55268 19.928 9.21219 20.7427 8.80825 21.5384C6.50992 20.8477 3.02156 20.0087 2.10397 19.7978C1.8622 20.3932 1.55894 20.9837 1.19895 21.5556C1.19895 21.5556 5.46098 23.4165 7.0966 24.3267H7.10014L7.09926 24.3283C6.38939 25.3922 4.98207 26.8805 4.98207 26.8805C4.57405 26.5753 4.18801 26.2896 3.82395 26.0228Z" fill="#C0C9C1"/>
</g>
</svg>
